<svg width="110" height="56" viewBox="0 0 110 56" fill="none" xmlns="http://www.w3.org/2000/svg">
<rect width="110" height="56" rx="12" fill="#030712" fill-opacity="0.1"/>
<path d="M55 40C53.4241 40 51.8637 39.6896 50.4078 39.0866C48.9519 38.4835 47.629 37.5996 46.5147 36.4853C45.4004 35.371 44.5165 34.0481 43.9134 32.5922C43.3104 31.1363 43 29.5759 43 28C43 26.4241 43.3104 24.8637 43.9134 23.4078C44.5165 21.9519 45.4004 20.629 46.5147 19.5147C47.629 18.4004 48.9519 17.5165 50.4078 16.9134C51.8637 16.3104 53.4241 16 55 16C56.5759 16 58.1363 16.3104 59.5922 16.9134C61.0481 17.5165 62.371 18.4004 63.4853 19.5147C64.5996 20.629 65.4835 21.9519 66.0866 23.4078C66.6896 24.8637 67 26.4241 67 28C67 29.5759 66.6896 31.1363 66.0866 32.5922C65.4835 34.0481 64.5996 35.371 63.4853 36.4853C62.371 37.5996 61.0481 38.4835 59.5922 39.0866C58.1363 39.6896 56.5759 40 55 40ZM55 40V30.6667M52.3333 28C52.3333 28.7072 52.6143 29.3855 53.1144 29.8856C53.6145 30.3857 54.2928 30.6667 55 30.6667M52.3333 28C52.3333 27.2928 52.6143 26.6145 53.1144 26.1144C53.6145 25.6143 54.2928 25.3333 55 25.3333C55.7072 25.3333 56.3855 25.6143 56.8856 26.1144C57.3857 26.6145 57.6667 27.2928 57.6667 28M52.3333 28L43.3333 25.3333M55 30.6667C55.7072 30.6667 56.3855 30.3857 56.8856 29.8856C57.3857 29.3855 57.6667 28.7072 57.6667 28M57.6667 28L66.6667 25.3333" stroke="#030712" stroke-opacity="0.7" stroke-width="2" stroke-linecap="round" stroke-linejoin="round"/>
</svg>
